<?xml version="1.0" encoding="UTF-8"?>
<svg width="128" height="128" viewBox="0 0 128 128" xmlns="http://www.w3.org/2000/svg">
  <!-- Background -->
  <rect width="128" height="128" rx="16" fill="#1e1e1e"/>
  
  <!-- LAML Logo -->
  <g transform="translate(16, 20)">
    <!-- L -->
    <rect x="8" y="8" width="6" height="32" fill="#00d4ff"/>
    <rect x="8" y="34" width="18" height="6" fill="#00d4ff"/>
    
    <!-- A -->
    <polygon points="32,40 38,8 44,40 40,40 39,32 35,32 34,40" fill="#00d4ff"/>
    <rect x="35" y="24" width="4" height="4" fill="#1e1e1e"/>
    
    <!-- M -->
    <rect x="48" y="8" width="6" height="32" fill="#00d4ff"/>
    <rect x="66" y="8" width="6" height="32" fill="#00d4ff"/>
    <polygon points="54,8 60,20 66,8 60,8 57,14 54,8" fill="#00d4ff"/>
    
    <!-- L -->
    <rect x="76" y="8" width="6" height="32" fill="#00d4ff"/>
    <rect x="76" y="34" width="18" height="6" fill="#00d4ff"/>
  </g>
  
  <!-- Subtitle -->
  <text x="64" y="80" text-anchor="middle" font-family="Arial, sans-serif" font-size="12" fill="#888">
    .lm
  </text>
  
  <!-- Border accent -->
  <rect width="128" height="128" rx="16" fill="none" stroke="#00d4ff" stroke-width="2" opacity="0.3"/>
</svg>
